<?xml version="1.0" encoding="iso-8859-1"?>
<!-- Generator: Adobe Illustrator 19.0.0, SVG Export Plug-In . SVG Version: 6.00 Build 0)  -->
<svg version="1.1" id="Capa_1" xmlns="http://www.w3.org/2000/svg" xmlns:xlink="http://www.w3.org/1999/xlink" x="0px" y="0px"
	 viewBox="0 0 512 512" style="enable-background:new 0 0 512 512;" xml:space="preserve">
<g>
	<g>
		<path d="M407,0H105C47.103,0,0,47.103,0,105v302c0,57.897,47.103,105,105,105h302c57.897,0,105-47.103,105-105V105
			C512,47.103,464.897,0,407,0z M482,407c0,41.355-33.645,75-75,75H105c-41.355,0-75-33.645-75-75V105c0-41.355,33.645-75,75-75h302
			c41.355,0,75,33.645,75,75V407z"/>
	</g>
</g>
<g>
	<g>
		<path d="M390.244,321.882l-31.595-18.957c-16.01-9.606-36.413-7.095-49.616,6.108c-5.849,5.849-15.365,5.848-21.213,0
			l-84.853-84.853c-5.848-5.848-5.848-15.364,0-21.213c13.203-13.203,15.715-33.606,6.108-49.616l-18.957-31.596
			c-11.522-19.202-36.519-25.453-55.725-13.931l-14.973,8.984l-1.306,1.306c-19.555,19.556-21.726,52.68-6.114,93.271
			c14.092,36.64,41.376,76.341,76.825,111.79c35.449,35.449,75.15,62.733,111.79,76.825c17.907,6.887,34.359,10.313,48.836,10.313
			c18.339,0,33.507-5.499,44.434-16.427l1.306-1.306l8.985-14.974C415.697,358.402,409.448,333.404,390.244,321.882z
			 M378.452,362.172l-6.949,11.581c-10.847,9.243-33.109,8.635-60.118-1.753c-32.809-12.619-68.801-37.491-101.347-70.037
			c-32.546-32.546-57.419-68.538-70.038-101.347c-10.388-27.009-10.996-49.271-1.753-60.118l11.582-6.949
			c5.019-3.012,11.553-1.378,14.565,3.641l18.957,31.596c2.511,4.185,1.855,9.517-1.596,12.968c-8.499,8.499-13.18,19.8-13.18,31.82
			c0,12.02,4.68,23.32,13.18,31.819l84.853,84.853c8.499,8.499,19.799,13.18,31.819,13.18c12.019,0,23.32-4.681,31.819-13.18
			c3.451-3.45,8.781-4.108,12.968-1.596l31.596,18.957C379.83,350.619,381.463,357.152,378.452,362.172z"/>
	</g>
</g>
<g>
</g>
<g>
</g>
<g>
</g>
<g>
</g>
<g>
</g>
<g>
</g>
<g>
</g>
<g>
</g>
<g>
</g>
<g>
</g>
<g>
</g>
<g>
</g>
<g>
</g>
<g>
</g>
<g>
</g>
</svg>
